<?xml version="1.0" encoding="UTF-8" standalone="no"?>
<!-- Created with Inkscape (http://www.inkscape.org/) -->

<svg
   xmlns:dc="http://purl.org/dc/elements/1.1/"
   xmlns:cc="http://creativecommons.org/ns#"
   xmlns:rdf="http://www.w3.org/1999/02/22-rdf-syntax-ns#"
   xmlns:svg="http://www.w3.org/2000/svg"
   xmlns="http://www.w3.org/2000/svg"
   xmlns:sodipodi="http://sodipodi.sourceforge.net/DTD/sodipodi-0.dtd"
   xmlns:inkscape="http://www.inkscape.org/namespaces/inkscape"
   width="298.25751mm"
   height="298.43695mm"
   viewBox="0 0 298.25751 298.43695"
   version="1.1"
   id="svg8"
   inkscape:version="0.92.5 (2060ec1f9f, 2020-04-08)"
   sodipodi:docname="clock.svg">
  <defs
     id="defs2" />
  <sodipodi:namedview
     id="base"
     pagecolor="#ffffff"
     bordercolor="#666666"
     borderopacity="1.0"
     inkscape:pageopacity="0.0"
     inkscape:pageshadow="2"
     inkscape:zoom="0.24748737"
     inkscape:cx="918.47304"
     inkscape:cy="547.13944"
     inkscape:document-units="mm"
     inkscape:current-layer="layer1"
     showgrid="false"
     fit-margin-top="0"
     fit-margin-left="0"
     fit-margin-right="0"
     fit-margin-bottom="0"
     inkscape:window-width="1848"
     inkscape:window-height="1136"
     inkscape:window-x="72"
     inkscape:window-y="27"
     inkscape:window-maximized="1" />
  <metadata
     id="metadata5">
    <rdf:RDF>
      <cc:Work
         rdf:about="">
        <dc:format>image/svg+xml</dc:format>
        <dc:type
           rdf:resource="http://purl.org/dc/dcmitype/StillImage" />
        <dc:title></dc:title>
      </cc:Work>
    </rdf:RDF>
  </metadata>
  <g
     inkscape:label="Layer 1"
     inkscape:groupmode="layer"
     id="layer1"
     transform="translate(886.48232,-303.12042)">
    <path
       style="fill:#000000;fill-opacity:1;stroke-width:0.35277778"
       d="m -748.1755,601.42575 c -1.35819,-0.12486 -4.93007,-0.41251 -7.9375,-0.63923 -3.00743,-0.2267 -6.49993,-0.63992 -7.76111,-0.91827 -1.26118,-0.27831 -3.16617,-0.67495 -4.23332,-0.88138 -6.0673,-1.17366 -10.46273,-2.22564 -14.11111,-3.37724 -0.87313,-0.27562 -2.46063,-0.73115 -3.52778,-1.01233 -1.06715,-0.28114 -2.56916,-0.83682 -3.33779,-1.23478 -0.76862,-0.39799 -1.69879,-0.72361 -2.06702,-0.72361 -0.64396,0 -6.75143,-2.51071 -9.51091,-3.90985 -0.73358,-0.37195 -1.52733,-0.67723 -1.76389,-0.67842 -0.23656,0 -0.90636,-0.25622 -1.48845,-0.56674 -0.58208,-0.31051 -2.01083,-1.05034 -3.175,-1.64407 -1.16416,-0.59372 -2.19604,-1.17215 -2.29305,-1.28534 -0.097,-0.11322 -1.18206,-0.67805 -2.41122,-1.25518 -1.22915,-0.57714 -2.38252,-1.32528 -2.56302,-1.66257 -0.1805,-0.33726 -0.5242,-0.53943 -0.76378,-0.44926 -0.497,0.18706 -2.72865,-1.07863 -2.72865,-1.54757 0,-0.17013 -0.79375,-0.6862 -1.76389,-1.14679 -0.97014,-0.46058 -1.76389,-0.95872 -1.76389,-1.10693 0,-0.14822 -0.21045,-0.26951 -0.46767,-0.26951 -0.25722,0 -0.84051,-0.39685 -1.29621,-0.88193 -0.4557,-0.48507 -1.04527,-0.88194 -1.31015,-0.88194 -0.26489,0 -1.74534,-1.03701 -3.2899,-2.30449 -1.54456,-1.26746 -2.80829,-2.19832 -2.80829,-2.06857 0,0.12978 -0.41852,-0.18259 -0.93005,-0.69411 -0.51152,-0.51154 -1.0796,-0.93006 -1.26238,-0.93006 -0.18279,0 -0.93556,-0.59531 -1.67283,-1.32292 -0.73727,-0.7276 -1.82675,-1.71034 -2.42107,-2.18387 -0.59431,-0.47353 -1.02196,-0.95578 -0.95034,-1.07167 0.0716,-0.11589 -0.29488,-0.40057 -0.81446,-0.63261 -0.51959,-0.23204 -1.26136,-0.89755 -1.6484,-1.47893 -0.38703,-0.58137 -1.14619,-1.24032 -1.687,-1.46433 -0.54082,-0.22402 -0.90926,-0.48135 -0.81876,-0.57186 0.0905,-0.0905 -0.49971,-0.82839 -1.3116,-1.63974 -0.81189,-0.81135 -1.82831,-1.86687 -2.25871,-2.3456 -0.4304,-0.47873 -1.18447,-1.26395 -1.6757,-1.74494 -0.49123,-0.48098 -0.89314,-1.05169 -0.89314,-1.26824 0,-0.21654 -0.3175,-0.68104 -0.70556,-1.03223 -0.38805,-0.35119 -0.70555,-0.52028 -0.70555,-0.37578 0,0.14451 -0.65262,-0.56287 -1.45026,-1.57197 -0.79765,-1.00909 -1.71046,-2.11174 -2.02847,-2.45033 -1.02655,-1.09294 -2.34211,-2.83597 -2.34211,-3.10314 0,-0.14294 -0.28179,-0.57739 -0.62621,-0.96545 -1.95047,-2.19759 -2.63648,-3.10026 -4.42367,-5.82083 -1.08341,-1.64924 -2.09697,-3.05153 -2.25234,-3.1162 -0.15537,-0.0647 -0.2825,-0.26491 -0.2825,-0.44497 0,-0.18005 -0.61571,-1.23838 -1.36825,-2.35185 -1.61011,-2.38235 -2.55004,-4.16221 -2.31968,-4.39256 0.0905,-0.0905 -0.15399,-0.4527 -0.54324,-0.80496 -0.38924,-0.35227 -0.70772,-0.92015 -0.70772,-1.26196 0,-0.34182 -0.12912,-0.6744 -0.28694,-0.73908 -0.15782,-0.0647 -1.12546,-1.86384 -2.15031,-3.99814 -1.02486,-2.13431 -2.03177,-4.19806 -2.23758,-4.58611 -0.79653,-1.50182 -0.95266,-1.82346 -1.80369,-3.71557 -0.4828,-1.07342 -0.98793,-2.42279 -1.12251,-2.99861 -0.13459,-0.57581 -0.42568,-1.20568 -0.64689,-1.39971 -0.42902,-0.37632 -1.30117,-3.06095 -1.37527,-4.23334 -0.0245,-0.38805 -0.25059,-0.91533 -0.50237,-1.17172 -0.25177,-0.25639 -0.45777,-0.84234 -0.45777,-1.3021 0,-0.45976 -0.14494,-0.9255 -0.32208,-1.03498 -0.17715,-0.10948 -0.43527,-0.87291 -0.5736,-1.69652 -0.13834,-0.8236 -0.55702,-2.44995 -0.9304,-3.61412 -1.20105,-3.74478 -2.05448,-7.19047 -2.05448,-8.29493 0,-0.59177 -0.30136,-1.98375 -0.66969,-3.09329 -0.36833,-1.10954 -0.78024,-3.04922 -0.91536,-4.3104 -0.13512,-1.26118 -0.47002,-3.80118 -0.74421,-5.64444 -0.27419,-1.84327 -0.66508,-7.95514 -0.86863,-13.58195 -0.44372,-12.26606 -0.0859,-18.11213 1.78147,-29.10416 0.37906,-2.23132 0.87418,-5.1682 1.10027,-6.52639 0.22609,-1.3582 0.64825,-2.66063 0.93814,-2.89429 0.32526,-0.26216 0.44798,-0.72732 0.32049,-1.21481 -0.2809,-1.07419 0.81012,-4.40398 1.23478,-3.76853 0.19926,0.29817 0.23145,0.11553 0.0883,-0.50084 -0.12394,-0.53358 -0.0812,-0.97014 0.095,-0.97014 0.17621,0 0.61789,-1.23032 0.98151,-2.73403 0.36362,-1.50372 0.8054,-2.92485 0.98173,-3.15807 0.17633,-0.23323 0.21111,-0.76904 0.0773,-1.19071 -0.15031,-0.47357 -0.10935,-0.68386 0.10713,-0.55006 0.37233,0.23011 0.77065,-0.85813 0.77864,-2.12732 0.003,-0.42039 0.1847,-0.82431 0.40456,-0.8976 0.21986,-0.0733 0.41829,-0.62653 0.44097,-1.22944 0.0227,-0.60291 0.1603,-1.02305 0.30582,-0.93366 0.14552,0.0894 0.26458,-0.13259 0.26458,-0.49329 0,-0.36071 0.13251,-0.80664 0.29447,-0.99096 0.30656,-0.3489 1.48276,-3.38228 1.60381,-4.13617 0.0382,-0.23776 0.49981,-1.33529 1.02584,-2.43893 0.52604,-1.10365 0.95644,-2.093 0.95644,-2.19857 0,-0.30055 5.01342,-10.38947 6.23726,-12.55175 1.13224,-2.00044 3.13181,-5.31835 5.56066,-9.2269 2.67542,-4.30533 7.63168,-10.8295 12.76091,-16.7978 2.10609,-2.45062 10.16786,-10.59488 12.65922,-12.78875 6.25375,-5.507 10.60788,-8.85335 17.32092,-13.31195 18.84262,-12.51471 40.84438,-20.68289 63.38756,-23.53273 27.86444,-3.52254 57.02221,1.21223 82.27484,13.36016 27.35177,13.15773 49.48193,33.6822 64.50913,59.82853 9.66237,16.8119 15.8891,35.3699 18.58364,55.38611 0.95385,7.0856 1.31958,22.31677 0.71625,29.82978 -1.96371,24.45404 -9.38347,47.10839 -22.17748,67.71328 -3.4952,5.62904 -9.56796,13.92511 -13.28718,18.15173 -6.17038,7.01218 -11.09051,11.83807 -18.72804,18.36931 -3.13518,2.68106 -11.16801,8.3923 -16.30354,11.59162 -6.28109,3.91297 -15.48341,8.54892 -22.66139,11.41637 -6.96935,2.78411 -17.57657,6.11886 -21.66745,6.81191 -0.59769,0.10128 -2.03921,0.40661 -3.20338,0.67852 -2.7495,0.6422 -7.29362,1.47768 -9.525,1.75123 -3.52574,0.43225 -4.49511,0.63214 -4.13901,0.85354 0.19972,0.12417 -0.6923,0.2734 -1.98227,0.33161 -3.20325,0.14454 -4.46426,0.2753 -4.845,0.50233 -0.17743,0.10581 -1.03698,0.28448 -1.91011,0.39704 -1.12665,0.14525 -1.33147,0.11607 -0.70556,-0.10052 0.81915,-0.28347 0.79278,-0.30771 -0.37041,-0.34036 -0.6888,-0.0193 -1.40318,0.1056 -1.5875,0.27766 -0.41751,0.38973 -13.21406,0.66796 -16.56292,0.36012 z m 10.14236,-0.92191 c -0.43656,-0.0841 -1.15093,-0.0841 -1.5875,0 -0.43656,0.0841 -0.0794,0.15287 0.79375,0.15287 0.87313,0 1.23032,-0.0688 0.79375,-0.15287 z m 5.82084,0.006 c -0.33955,-0.0887 -0.89518,-0.0887 -1.23473,0 -0.33954,0.0887 -0.0617,0.16134 0.61736,0.16134 0.6791,0 0.95691,-0.0726 0.61737,-0.16134 z m -5.03204,-24.08891 c 0.69994,-1.35353 1.59232,-6.02517 1.59239,-8.3363 3e-5,-0.99018 0.10205,-2.77612 0.22671,-3.96874 l 0.22664,-2.16842 h 2.24486 2.24486 l -0.26665,3.08681 c -0.39719,4.59826 -0.29968,9.66832 0.20358,10.58332 1.20654,2.19374 3.44437,2.25515 4.8115,0.13203 0.97515,-1.51439 1.4264,-2.86605 0.95681,-2.86605 -0.18447,0 -0.41654,0.31026 -0.51571,0.68948 -0.27717,1.0599 -1.89356,1.30644 -3.0195,0.46054 l -0.93943,-0.70578 0.0283,-5.52445 c 0.0281,-5.48745 0.31382,-6.88962 1.21934,-5.98409 0.20462,0.20462 0.94273,0.2727 1.6757,0.15457 1.10194,-0.17759 1.32772,-0.36454 1.42162,-1.17708 0.0708,-0.61219 -0.0585,-0.97454 -0.35278,-0.98937 -0.25542,-0.0129 -3.12393,-0.0395 -6.37447,-0.0591 -6.34916,-0.0383 -7.18024,0.14 -8.55382,1.83513 -1.71107,2.11163 -1.98344,3.94948 -0.2945,1.98716 0.55888,-0.64934 1.38503,-1.11499 2.26305,-1.27555 l 1.38284,-0.25287 v 1.37764 c 0,0.75771 -0.17158,2.91634 -0.38128,4.79697 -0.31383,2.81446 -0.59465,3.80085 -1.5875,5.57626 -1.39553,2.49544 -1.37535,2.39876 -0.65186,3.12224 0.86496,0.86498 1.83837,0.66768 2.43929,-0.49437 z m -53.96643,-4.75083 c 1.55862,-0.65125 2.63921,-2.41789 2.64091,-4.31765 10e-4,-1.19023 -0.22755,-1.71686 -1.18687,-2.73403 -0.66792,-0.70821 -1.55611,-1.27621 -2.02847,-1.29722 -1.78664,-0.0795 -2.94001,0.12559 -3.77187,0.67065 -0.84802,0.55564 -0.85984,0.54975 -0.59778,-0.29779 0.7709,-2.49313 2.90255,-4.61164 5.13325,-5.10158 1.72192,-0.3782 1.72646,-1.02157 0.005,-0.74634 -4.53188,0.72468 -7.73089,4.70141 -7.36185,9.15161 0.33348,4.02124 3.61145,6.15812 7.16741,4.67235 z m -3.78415,-0.815 c -0.97207,-1.11439 -1.33473,-2.13479 -1.33473,-3.75542 0,-1.65518 0.75414,-2.78146 2.09772,-3.13281 1.00818,-0.26364 2.81717,0.69377 3.19663,1.69183 0.59995,1.57798 0.42161,3.8638 -0.38107,4.88425 -0.87435,1.11154 -2.73935,1.27423 -3.57855,0.31215 z m 121.68194,-3.11904 c 0.63559,-0.48479 1.23622,-1.27116 1.33474,-1.74751 0.0985,-0.47635 0.24691,-1.22327 0.32975,-1.65983 0.22369,-1.17873 -0.88817,-3.18307 -2.09228,-3.77173 -1.38568,-0.67743 -3.4577,-0.61514 -4.60795,0.13853 -0.50597,0.33152 -0.97615,0.54656 -1.04485,0.47786 -0.0687,-0.0687 0.1893,-0.82675 0.57335,-1.68454 0.88089,-1.96753 2.31993,-3.25913 4.65835,-4.18105 1.62746,-0.64163 1.71461,-0.72508 0.77526,-0.74233 -2.65858,-0.0488 -6.66536,3.0088 -7.58184,5.78578 -0.62428,1.89159 -0.3131,5.1086 0.62105,6.42049 1.67148,2.34736 4.68037,2.75985 7.03442,0.96433 z m -4.9598,-0.4986 c -1.87119,-2.22379 -1.49519,-5.53165 0.72472,-6.37566 2.11694,-0.80485 3.98342,1.15719 3.98451,4.18851 10e-4,2.99614 -2.89623,4.34178 -4.70923,2.18715 z m -113.28305,-12.01108 c 0.13355,-0.21609 1.35793,-0.34687 2.93123,-0.3131 3.19084,0.0685 8.17228,-0.2564 8.17091,-0.53291 -5.3e-4,-0.10671 -10e-4,-0.35276 -10e-4,-0.54679 0,-0.20159 -1.05834,-0.35278 -2.46944,-0.35278 -1.72553,0 -2.47784,-0.13284 -2.4973,-0.44097 -0.0223,-0.35278 -0.0634,-0.35278 -0.20579,0 -0.0979,0.24254 -0.64096,0.44097 -1.20687,0.44097 -0.5731,0 -1.04127,-0.19535 -1.05679,-0.44097 -0.0223,-0.35278 -0.0634,-0.35278 -0.20578,0 -0.13242,0.32817 -1.69075,0.44097 -6.09157,0.44097 -3.25249,0 -7.36676,0.10315 -9.14283,0.22922 -2.86623,0.20345 -3.22919,0.30513 -3.22919,0.90467 0,0.64704 0.29025,0.66974 6.89732,0.5394 3.79352,-0.0748 6.97789,-0.006 7.07637,0.15366 0.24855,0.40216 0.75664,0.36204 1.03069,-0.0814 z m 125.84214,-3.50759 c 0.53357,-10e-4 0.97013,-0.15544 0.97013,-0.34313 0,-0.36302 -20.07362,-0.49085 -21.00419,-0.13376 -0.28339,0.10875 -0.51525,0.36409 -0.51525,0.56743 0,0.25438 3.05375,0.29822 9.78958,0.14053 5.38427,-0.12605 10.22615,-0.23003 10.75973,-0.23107 z m -130.30367,-7.04572 c 1.18643,-3.64646 2.15715,-6.89246 2.15715,-7.21332 0,-0.51224 -0.45575,-0.57116 -3.73767,-0.48324 l -3.73767,0.10013 -0.49035,1.41111 c -0.68802,1.97994 -0.62613,2.18084 0.38047,1.23519 0.72881,-0.68468 1.33283,-0.84794 3.48802,-0.94277 l 2.60658,-0.11469 -2.07157,6.43752 c -1.13936,3.54064 -2.07397,6.46235 -2.07691,6.49269 -0.003,0.0303 0.29394,-0.0231 0.65973,-0.11875 0.51354,-0.13429 1.15656,-1.68451 2.82222,-6.80387 z m 7.48438,5.36815 c 0.20399,-0.53358 0.46063,-2.34285 0.5703,-4.02062 l 0.19942,-3.05047 1.09667,0.0308 1.09666,0.0308 -0.12359,3.11576 c -0.0966,2.4355 0.001,3.30659 0.4491,3.9898 0.77651,1.1851 1.82492,1.11481 2.48765,-0.16677 0.6006,-1.16143 0.73866,-2.33876 0.15719,-1.34044 -0.44817,0.76946 -1.58793,0.80555 -1.87427,0.0593 -0.11778,-0.30691 -0.21414,-1.48455 -0.21414,-2.61698 0,-2.71165 0.21144,-3.175 1.44886,-3.175 0.7854,0 1.02059,-0.16259 1.02059,-0.70556 0,-0.7647 -0.42998,-0.82257 -5.25468,-0.70717 -1.52895,0.0366 -2.358,-0.0966 -2.57235,-0.41318 -0.25074,-0.37035 -0.29838,-0.35749 -0.2299,0.062 0.0475,0.29104 -0.1957,1.05986 -0.54047,1.70848 -0.66464,1.25041 -0.51366,1.96206 0.22257,1.04909 0.24053,-0.29827 0.73621,-0.64697 1.10152,-0.77489 0.62086,-0.21741 0.65322,-0.0614 0.49586,2.39045 -0.11511,1.79366 -0.35301,2.80772 -0.75239,3.2071 -0.32123,0.32123 -0.58405,0.96959 -0.58405,1.4408 0,1.24454 1.31193,1.16187 1.79945,-0.11339 z m 108.93632,-2.67991 c 1.91391,-0.94306 2.86016,-2.16342 3.0747,-3.96544 0.32668,-2.74376 -1.5378,-4.53403 -4.63704,-4.45249 l -1.96852,0.0518 0.10796,-1.48855 0.10795,-1.48855 2.91042,-0.10246 c 2.62035,-0.0923 2.91041,-0.17136 2.91041,-0.79375 0,-0.63454 -0.2567,-0.69129 -3.12705,-0.69129 h -3.12704 l -0.22435,1.63674 c -0.12338,0.90021 -0.22434,2.15055 -0.22434,2.77854 0,1.13345 0.0146,1.14301 2.00006,1.30766 1.62178,0.13449 2.15554,0.34663 2.82222,1.12169 1.94473,2.26088 0.32864,5.28612 -3.32297,6.22044 -1.01865,0.26063 -1.85208,0.60449 -1.85208,0.76413 0,0.48629 2.90265,-0.0869 4.54967,-0.89847 z m 8.4556,-0.84809 c 0.2066,-0.92163 0.47905,-2.74725 0.60545,-4.05694 l 0.2298,-2.38125 h 1.14447 1.14447 l -0.17213,3.2907 c -0.18142,3.46854 0.16269,4.82319 1.22522,4.82319 0.59068,0 1.86745,-0.96871 1.86745,-1.41687 0,-0.13705 -0.36685,-0.17905 -0.81521,-0.0933 -1.41469,0.27044 -1.75877,-0.60794 -1.47847,-3.7744 0.25035,-2.8282 0.25083,-2.82927 1.27206,-2.82927 0.67292,0 1.02162,-0.18062 1.02162,-0.52917 0,-0.43655 -0.64409,-0.52917 -3.68015,-0.52917 h -3.68014 l -0.81199,1.14653 -0.812,1.14653 0.95195,-0.61736 c 0.52357,-0.33955 1.13716,-0.61736 1.36353,-0.61736 0.63063,0 0.21312,5.03839 -0.50882,6.1402 -0.77345,1.18043 -0.73853,1.97369 0.0869,1.97369 0.51183,0 0.7592,-0.39629 1.04601,-1.6757 z m -158.76115,-12.04086 c 2.47371,-1.76143 2.77051,-5.25253 0.5942,-6.98905 l -1.16256,-0.92763 0.70128,-0.73685 c 1.61513,-1.69707 1.45775,-3.84544 -0.35946,-4.90674 -1.52983,-0.89347 -3.37787,-0.54726 -4.71404,0.88311 -1.19187,1.2759 -1.34607,2.14928 -0.18727,1.06064 1.84576,-1.734 4.40397,-1.08553 4.60696,1.1678 0.13686,1.51912 -0.39041,2.48714 -1.75499,3.22202 -1.16541,0.62761 -1.6839,1.35385 -0.6959,0.97472 0.6983,-0.26797 2.57525,0.77355 3.07421,1.70587 0.70688,1.32081 0.44184,3.17421 -0.58107,4.06336 -1.04417,0.90764 -2.07556,0.98926 -3.34325,0.26458 -1.25824,-0.71927 -2.11666,-0.65966 -2.11666,0.147 0,0.9221 0.54089,1.09766 2.89524,0.93969 1.29952,-0.0872 2.37846,-0.39511 3.04331,-0.86852 z m 192.15961,-4.08506 c 2.36229,-1.80181 2.45994,-5.55164 0.18393,-7.0634 l -1.05348,-0.69974 0.90299,-0.94252 c 1.29851,-1.35536 1.30055,-3.29124 0.005,-4.40594 -1.41116,-1.21383 -3.92617,-0.96426 -5.03864,0.5 -0.68237,0.89817 -0.57529,1.3274 0.1642,0.65817 0.35483,-0.32111 1.14858,-0.58384 1.76389,-0.58384 3.09193,0 3.45822,4.49633 0.46579,5.7176 l -0.93454,0.3814 1.2937,0.33002 c 1.66738,0.42535 2.32075,1.17596 2.61267,3.00152 0.21215,1.32671 0.12809,1.58232 -0.83801,2.54843 -1.21628,1.21627 -1.8899,1.3091 -3.77726,0.52051 -0.98735,-0.41255 -1.4246,-0.45138 -1.71878,-0.15264 -0.29178,0.2963 -0.21077,0.54019 0.31101,0.93637 1.07013,0.81254 4.14637,0.40696 5.6579,-0.74594 z m -187.77941,-13.2419 c 5.01687,-7.9e-4 5.90902,-0.0808 5.90902,-0.53009 0,-0.54662 -0.62837,-0.64584 -3.40366,-0.53745 -0.80486,0.0314 -1.57877,-0.12954 -1.71979,-0.35773 -0.17694,-0.2863 -0.32846,-0.2983 -0.48889,-0.0387 -0.15334,0.24811 -3.64952,0.41105 -10.27009,0.47863 -9.56017,0.0976 -10.04377,0.13455 -10.16724,0.77702 -0.12539,0.65244 0.10564,0.66691 7.05099,0.44189 3.94935,-0.12795 9.83969,-0.23306 13.08966,-0.23357 z m 197.99651,-4.05787 c 0,-0.2243 -3.59735,-0.39078 -9.87778,-0.45714 -9.96115,-0.10524 -12.87639,0.0442 -12.87639,0.66003 0,0.20786 4.33998,0.30054 11.37709,0.24297 7.28748,-0.0596 11.37708,-0.21989 11.37708,-0.44586 z m -205.20876,-1.92199 0.10789,-1.85477 1.18782,0.13867 c 1.05043,0.12263 1.14874,0.0656 0.84984,-0.49287 -0.18589,-0.34735 -0.72928,-0.63154 -1.20752,-0.63154 -0.83998,0 -0.86953,-0.0825 -0.86953,-2.42832 0,-2.30392 -0.0448,-2.43687 -0.87366,-2.59533 -0.48051,-0.0919 -0.95676,-0.0839 -1.05833,0.0177 -0.10157,0.10157 -0.18468,1.26947 -0.18468,2.59533 v 2.41064 h -1.73504 c -0.95427,0 -1.98614,0.0964 -2.29305,0.21413 -0.98958,0.37974 -0.61149,-0.65635 1.30115,-3.56552 2.31192,-3.51649 3.43249,-5.41645 3.43249,-5.81986 0,-0.17132 -0.41415,-0.27965 -0.92033,-0.24074 -0.7606,0.0585 -1.34538,0.74363 -3.36923,3.94761 -1.3469,2.13229 -2.7616,4.47219 -3.14378,5.1998 l -0.69488,1.32291 h 3.71133 3.71134 v 1.70509 c 0,1.93975 0.15279,2.20094 1.19562,2.04396 0.63222,-0.0952 0.76095,-0.39217 0.85255,-1.96687 z m 5.39954,0.77546 c 0.20609,-0.53358 0.47997,-2.31951 0.60863,-3.96875 l 0.23394,-2.99861 1.05833,0.0187 1.05833,0.0187 -0.10223,2.97993 c -0.11731,3.41914 0.34543,4.74381 1.65712,4.74381 0.47418,0 1.05986,-0.34845 1.36949,-0.81478 0.52459,-0.79006 0.5134,-0.80784 -0.36896,-0.58639 -1.22151,0.30657 -1.67347,-0.58719 -1.67347,-3.3093 0,-2.76598 0.207,-3.22705 1.44885,-3.22705 0.80268,0 1.02059,-0.1587 1.02059,-0.7433 0,-0.53285 -0.15799,-0.68267 -0.55802,-0.52916 -0.30691,0.11777 -1.9676,0.21413 -3.69042,0.21413 -2.76807,0 -3.21607,0.0898 -3.8517,0.77207 -0.39562,0.42465 -0.71425,1.01996 -0.70808,1.32292 0.01,0.46742 0.0822,0.45735 0.47986,-0.0665 0.25776,-0.33955 0.82884,-0.61736 1.26907,-0.61736 0.77247,0 0.79198,0.077 0.55858,2.20486 -0.13302,1.21267 -0.5533,2.81063 -0.93397,3.55102 -0.38066,0.74039 -0.60047,1.49445 -0.48845,1.6757 0.40049,0.648 1.24428,0.31279 1.61251,-0.64061 z m 193.25882,-3.175 c 0.19578,-0.7276 0.46282,-2.47385 0.59342,-3.88055 l 0.23746,-2.55764 h 1.12082 1.12083 l -0.14584,2.91041 c -0.1739,3.4704 0.24016,4.8507 1.45511,4.8507 0.8876,0 1.36421,-0.42066 1.77624,-1.56772 0.24364,-0.67828 0.23808,-0.67831 -0.50805,-0.003 -0.74859,0.67747 -0.7596,0.67629 -1.43146,-0.15343 -0.57309,-0.70773 -0.64476,-1.1949 -0.46664,-3.17194 0.27626,-3.06645 0.31041,-3.14777 1.37753,-3.28048 0.50256,-0.0625 0.86913,-0.27239 0.81459,-0.46642 -0.0579,-0.20602 -1.61531,-0.35277 -3.74373,-0.35277 -3.20062,0 -3.70554,0.0834 -4.14514,0.68478 -0.27531,0.37664 -0.50057,0.92292 -0.50057,1.21396 0,0.41678 0.0986,0.39431 0.46429,-0.10579 0.25536,-0.34923 0.76592,-0.57687 1.13458,-0.50587 0.5685,0.10948 0.65528,0.39655 0.57147,1.89044 -0.11502,2.05017 -0.73963,4.40731 -1.16785,4.40731 -0.16332,0 -0.29694,0.3175 -0.29694,0.70555 0,0.46575 0.23519,0.70556 0.69196,0.70556 0.50113,0 0.79012,-0.36484 1.04792,-1.32292 z m -4.5145,-0.93661 c 0.20672,-0.77487 0.17403,-0.92543 -0.13405,-0.61736 -0.2391,0.23911 -1.55556,0.40744 -3.18638,0.40744 h -2.77895 l 1.57972,-1.85208 c 1.87302,-2.19597 3.41373,-4.97409 3.41373,-6.15548 0,-1.39903 -1.02659,-2.95129 -2.30516,-3.48551 -1.76238,-0.73636 -2.56774,-0.62164 -3.7192,0.52983 -1.28436,1.28436 -1.35901,2.10009 -0.10168,1.11107 1.37769,-1.08369 2.70806,-0.94539 3.83939,0.39913 0.79689,0.94705 0.92361,1.37397 0.78165,2.63343 -0.096,0.85206 -0.65894,2.26598 -1.29953,3.26427 l -1.13011,1.76112 -1.35703,1.3547 c 0.097,0.0811 -0.1808,0.43701 -0.61736,0.79095 -0.43656,0.35395 -0.79375,0.74253 -0.79375,0.86351 0,0.12099 1.69544,0.17492 3.76765,0.11984 l 3.76765,-0.10012 0.27341,-1.02481 z m -203.34566,-27.6384 c 0.41678,-2.26854 0.32341,-2.64825 -0.40573,-1.64994 -0.425,0.5819 -1.03418,0.69713 -4.22969,0.80011 -2.05324,0.0662 -3.73317,0.0217 -3.73317,-0.0988 0,-0.12052 0.8867,-1.26436 1.97045,-2.54187 3.40397,-4.01257 4.50685,-6.00439 4.65984,-8.41573 0.1127,-1.77624 0.002,-2.30948 -0.69036,-3.31554 -1.56095,-2.2693 -4.27429,-3.06331 -6.82548,-1.99735 -1.36644,0.57093 -2.64947,2.39516 -2.62016,3.72539 0.0183,0.83078 0.0438,0.84233 0.43965,0.19913 1.01089,-1.64259 2.08454,-2.31579 3.69328,-2.31579 1.36785,0 1.74949,0.17703 2.81336,1.30506 1.18619,1.25772 1.22457,1.38307 1.05822,3.45553 -0.0949,1.18275 -0.45476,2.69891 -0.79959,3.36924 -0.71107,1.38227 -2.95101,4.33646 -5.07011,6.68683 -0.78722,0.87313 -1.43581,1.70656 -1.44131,1.85209 -0.006,0.14552 2.29186,0.26458 5.10526,0.26458 3.175,0 5.11528,0.13381 5.11528,0.35278 0,0.19402 0.13221,0.35277 0.29379,0.35277 0.16159,0 0.4615,-0.91281 0.66647,-2.02847 z m 222.53691,-4.93889 c 0.50138,-1.69971 0.44579,-1.78117 -0.54163,-0.79375 -0.60653,0.60653 -1.17592,0.70556 -4.05694,0.70556 -1.84327,0 -3.35139,-0.0853 -3.35139,-0.18956 0,-0.10426 0.99219,-1.37544 2.20486,-2.82485 1.21267,-1.44941 2.63799,-3.46754 3.16737,-4.48475 2.32725,-4.47177 0.28691,-8.41457 -4.39088,-8.48514 -1.45192,-0.0219 -1.8762,0.13577 -2.76977,1.02935 -0.68991,0.6899 -1.11891,1.53767 -1.23919,2.44883 l -0.18399,1.39362 0.49695,-1.06689 c 0.92006,-1.97526 4.0244,-2.59369 5.71235,-1.13797 1.18098,1.0185 1.73579,3.34601 1.23814,5.19416 -0.43065,1.59931 -2.57908,4.90416 -4.4781,6.88848 -0.74274,0.77611 -1.65568,1.7727 -2.02875,2.21465 l -0.6783,0.80355 5.2285,-0.098 5.22852,-0.098 z m -221.99786,-19.01922 c 7.82848,-0.18587 9.78958,-0.32707 9.78958,-0.70487 0,-0.37837 -1.4223,-0.47727 -7.14375,-0.49674 -3.92906,-0.0134 -7.5778,-0.0816 -8.10831,-0.15173 -0.53051,-0.0701 -1.04456,0.002 -1.14233,0.16022 -0.0978,0.1582 -3.85837,0.31346 -8.35688,0.34501 -4.49851,0.0315 -8.3104,0.13851 -8.47086,0.23768 -0.16047,0.0992 -0.29176,0.3297 -0.29176,0.51228 0,0.39126 9.69067,0.43136 23.72431,0.0982 z m 230.23301,-3.524 c 2.11043,-0.1498 3.19522,-0.36513 3.11023,-0.61736 -0.0925,-0.27472 -3.30102,-0.34094 -11.03582,-0.22776 -5.99795,0.0878 -12.87541,0.16714 -15.28325,0.17639 -3.17502,0.0122 -4.41896,0.13798 -4.52732,0.45779 -0.11764,0.34721 2.47057,0.44097 12.17301,0.44097 6.77735,0 13.78073,-0.10352 15.56315,-0.23003 z m -240.81894,-5.65012 c 3.73444,-2.58797 3.97092,-8.10707 0.42859,-10.00287 l -0.82322,-0.44057 1.12465,-1.39948 c 0.88867,-1.10583 1.12466,-1.73104 1.12466,-2.97965 0,-1.33898 -0.17584,-1.73727 -1.1521,-2.60955 -2.03023,-1.81401 -5.66411,-1.29435 -7.28284,1.04149 -0.94173,1.35891 -1.33491,2.8937 -0.46148,1.80138 1.81105,-2.26492 3.96755,-2.6818 5.57216,-1.07718 2.02152,2.02151 0.95895,5.41135 -2.00259,6.38874 -1.42723,0.47103 -1.34714,0.75882 0.24604,0.88415 3.47941,0.27371 5.36822,5.02252 2.95679,7.43394 -1.01763,1.01763 -2.48316,1.09135 -4.84769,0.24385 -1.59438,-0.57146 -1.71129,-0.57039 -2.29305,0.021 -0.58282,0.59247 -0.56957,0.65885 0.26892,1.34742 0.77465,0.63611 1.18187,0.69648 3.34726,0.49613 1.82997,-0.16933 2.8077,-0.46539 3.7939,-1.14882 z m 9.27688,-0.97781 c 0.27888,-0.66744 0.69439,-3.12806 0.92338,-5.46806 l 0.41633,-4.25454 h 1.33086 c 0.73198,0 1.39338,0.11907 1.46979,0.26459 0.0764,0.14552 0.0233,1.61396 -0.11791,3.26319 -0.41166,4.80658 0.0158,6.67057 1.6485,7.18878 0.96594,0.30657 2.14237,-0.67795 2.47353,-2.07001 0.23326,-0.98053 0.2099,-1.01381 -0.33153,-0.47237 -0.78338,0.78337 -1.97273,0.42536 -2.41143,-0.72587 -0.20979,-0.55053 -0.25305,-2.23648 -0.10738,-4.18511 l 0.24395,-3.2632 h 1.54555 c 1.4134,0 1.54554,-0.0754 1.54554,-0.88194 v -0.88195 h -4.88491 c -5.36073,0 -5.96226,0.2034 -6.75309,2.28344 -0.46956,1.23503 -0.15781,1.62141 0.52346,0.64877 0.28099,-0.40117 0.93468,-0.81042 1.45266,-0.90943 l 0.94177,-0.18003 -0.20302,3.13371 c -0.16126,2.48899 -0.39971,3.49508 -1.15897,4.8901 -0.78961,1.45076 -0.87817,1.85008 -0.509,2.29491 0.71934,0.86675 1.41821,0.62631 1.96192,-0.67498 z m -42.17424,-4.33259 c -0.38115,-0.59404 -0.3918,-0.59304 -0.1996,0.0187 0.11166,0.35541 0.22464,0.99041 0.25107,1.41111 0.048,0.76414 0.0482,0.76412 0.19959,-0.0187 0.0834,-0.43098 -0.0296,-1.06598 -0.25106,-1.41111 z m -0.82127,0.51902 c -0.0979,-0.24253 -0.17794,-0.0441 -0.17794,0.44097 0,0.48507 0.0801,0.68351 0.17794,0.44098 0.0979,-0.24254 0.0979,-0.63941 0,-0.88195 z m 259.32639,0.70556 c 0.54513,-0.6776 1.14273,-3.94625 1.14273,-6.25032 0,-2.85012 0.18147,-3.18649 1.71904,-3.18649 h 1.29078 l -0.13406,3.91671 c -0.15182,4.43563 0.19402,5.60829 1.65401,5.60829 1.09877,0 2.17303,-0.9339 2.17303,-1.88912 0,-0.56111 -0.0941,-0.62736 -0.42334,-0.2981 -0.63566,0.63566 -1.62213,0.51001 -2.03372,-0.25903 -0.40499,-0.75674 -0.47627,-3.71381 -0.13874,-5.75583 0.2006,-1.21366 0.31371,-1.32292 1.36948,-1.32292 0.72655,0 1.23018,-0.20682 1.3661,-0.561 0.43296,-1.12829 -0.15537,-1.28712 -3.97771,-1.07386 -2.06074,0.11499 -4.10633,0.21237 -4.54575,0.21641 -0.5182,0.005 -1.04456,0.4102 -1.49798,1.15387 -0.93447,1.53263 -0.88563,1.97149 0.1148,1.03163 0.44906,-0.42188 1.08406,-0.76705 1.41111,-0.76705 1.01487,0 0.82017,4.61597 -0.29583,7.01331 -0.67721,1.45477 -0.7899,2.01089 -0.48252,2.38125 0.49741,0.59935 0.83156,0.61031 1.28857,0.0422 z m -257.90574,-4.7625 c -0.0887,-0.33955 -0.16133,-0.0617 -0.16133,0.61736 0,0.6791 0.0726,0.95691 0.16133,0.61736 0.0887,-0.33955 0.0887,-0.89517 0,-1.23472 z m 0.35407,-2.81551 c -0.0894,-0.34324 -0.16851,-0.14783 -0.17569,0.43426 -0.007,0.58208 0.066,0.86291 0.16262,0.62407 0.0966,-0.23884 0.10252,-0.71509 0.0131,-1.05833 z m 0.35278,-4.23333 c -0.0894,-0.34325 -0.16851,-0.14783 -0.1757,0.43425 -0.007,0.58209 0.066,0.86292 0.16263,0.62408 0.0966,-0.23884 0.10252,-0.71509 0.0131,-1.05833 z m 0.57281,-2.91713 c 0.14016,-1.06003 0.1061,-1.35307 -0.10251,-0.88195 -0.29832,0.67376 -0.50007,2.92287 -0.2347,2.61644 0.07,-0.0808 0.22176,-0.86137 0.33721,-1.73449 z m 0.94661,-5.46806 c 0,-0.29104 -0.0624,-0.52917 -0.13865,-0.52917 -0.0763,0 -0.23002,0.23813 -0.3417,0.52917 -0.11169,0.29104 -0.0493,0.52917 0.13864,0.52917 0.18794,0 0.34171,-0.23813 0.34171,-0.52917 z m 0.93919,-4.85069 c -0.0979,-0.24254 -0.17793,-0.0441 -0.17793,0.44097 0,0.48507 0.0801,0.6835 0.17793,0.44097 0.0979,-0.24253 0.0979,-0.63941 0,-0.88194 z m 49.88249,-3.62719 c 1.5077,-0.77966 2.44486,-2.48438 2.44644,-4.45016 10e-4,-1.44202 -0.15189,-1.77367 -1.27265,-2.75771 l -1.27397,-1.11856 0.75878,-0.80767 c 0.41732,-0.44422 0.84671,-1.34957 0.95419,-2.01189 0.27551,-1.6978 -1.15084,-3.1303 -3.11688,-3.1303 -1.77665,0 -2.6042,0.45685 -3.31403,1.82952 l -0.57041,1.10305 0.96711,-0.76072 c 2.72963,-2.14713 5.82475,0.86028 3.68498,3.58056 -0.39312,0.49977 -1.02812,1.00813 -1.41111,1.12968 -0.97625,0.30985 -0.86881,0.87903 0.16592,0.87903 1.33294,0 2.61986,1.36971 2.87668,3.06175 0.19556,1.28847 0.10406,1.59396 -0.72608,2.42411 -0.99618,0.99617 -0.95739,0.99374 -4.68857,0.29363 -0.91622,-0.17192 -1.14653,-0.0985 -1.14653,0.36544 0,1.30598 3.42397,1.52971 5.66613,0.37024 z m 194.28818,-3.13027 c 1.75433,-0.91278 2.62961,-2.18003 2.81123,-4.07018 0.15922,-1.65703 0.0908,-1.84557 -1.10231,-3.0387 l -1.27206,-1.27207 0.87524,-1.28803 c 1.10485,-1.62593 1.09855,-2.21585 -0.0381,-3.56663 -0.76117,-0.9046 -1.16801,-1.0854 -2.44238,-1.0854 -1.67988,0 -3.70943,1.32744 -3.68865,2.4126 0.0102,0.53186 0.0509,0.53429 0.44097,0.0263 1.16926,-1.52291 3.41479,-1.56206 4.38816,-0.0765 0.83718,1.27771 0.25905,3.20834 -1.26809,4.23467 -1.03286,0.69414 -1.10283,0.82743 -0.52916,1.00808 2.37539,0.748 3.5271,2.26553 3.15318,4.15477 -0.12154,0.61408 -0.62436,1.41036 -1.11737,1.76951 -0.89197,0.64977 -1.22292,0.65204 -4.28516,0.0293 -0.89558,-0.18214 -1.14653,-0.11502 -1.14653,0.30664 0,0.29689 0.19844,0.61988 0.44097,0.71774 0.9259,0.37361 3.86838,0.21232 4.78002,-0.26201 z m -184.87306,-14.568 c 0.43656,-0.10025 0.79375,-0.39834 0.79375,-0.66242 0,-0.39891 -1.8649,-0.44714 -11.0243,-0.2851 -6.06337,0.10727 -11.23281,0.26005 -11.48764,0.3395 -0.25483,0.0795 -0.35868,0.31379 -0.23078,0.52075 0.23753,0.38432 20.30799,0.46413 21.94897,0.0873 z m 191.24371,-3.46596 c 0.0987,-0.0986 0.004,-0.35528 -0.21152,-0.57028 -0.43955,-0.43954 -14.9079,-0.0682 -14.9079,0.38268 0,0.14035 0.11907,0.38135 0.26459,0.53556 0.27862,0.29525 14.54581,-0.0389 14.85483,-0.34796 z m -206.13152,-0.75149 c 2.57983,-1.26323 3.07124,-1.89263 3.26062,-4.17632 0.15143,-1.82616 0.0947,-1.99211 -1.08268,-3.16954 -1.23629,-1.23629 -2.24892,-1.50575 -4.79824,-1.27685 -0.64737,0.0581 -0.78858,-0.057 -0.61736,-0.50315 0.1221,-0.31819 0.222,-0.96241 0.222,-1.43161 0,-0.83537 0.0623,-0.85309 2.99861,-0.85309 2.96333,0 2.99861,-0.0104 2.99861,-0.88195 0,-0.86991 -0.0397,-0.88187 -2.91041,-0.87654 -1.60073,0.003 -3.09893,0.12527 -3.32934,0.27177 -0.23041,0.14651 -0.53012,1.49345 -0.66602,2.99321 l -0.2471,2.72684 h 2.00497 c 1.65837,0 2.15467,0.14969 2.87088,0.86591 1.03433,1.03432 1.1726,3.12535 0.29,4.38544 -0.68459,0.97738 -3.08902,2.13836 -4.45117,2.14923 -0.53358,0.004 -0.97014,0.1665 -0.97014,0.36053 0,0.67848 2.53026,0.34475 4.42677,-0.58388 z m 8.67809,-0.65138 c 0.15018,-0.58179 0.39834,-2.31003 0.55146,-3.84054 l 0.2784,-2.78275 1.17824,-0.12817 1.17824,-0.12817 -0.22247,2.91092 c -0.26788,3.50505 0.0687,4.9817 1.17235,5.14286 0.93137,0.136 1.65963,-0.38824 1.91943,-1.38172 0.15014,-0.57414 0.0918,-0.63533 -0.29773,-0.31208 -0.26646,0.22115 -0.8096,0.2989 -1.20696,0.17278 -0.64621,-0.20509 -0.72192,-0.51546 -0.71709,-2.93956 0.005,-2.65573 0.26861,-3.68972 0.90888,-3.56905 0.87349,0.16464 1.55517,-0.0775 1.55517,-0.55232 0,-0.438 -0.66249,-0.52916 -3.84571,-0.52916 h -3.84571 l -0.77937,1.32291 c -0.69285,1.17607 -0.70343,1.25439 -0.0953,0.70556 0.37625,-0.33955 1.04929,-0.61736 1.49564,-0.61736 0.7861,0 0.80396,0.0691 0.56969,2.20486 -0.13302,1.21267 -0.5533,2.81063 -0.93397,3.55102 -0.38066,0.74039 -0.59503,1.50325 -0.47638,1.69523 0.40983,0.66311 1.34102,0.12901 1.61315,-0.92526 z m 188.55819,-3.53005 c 0.23341,-0.77457 0.43658,-2.47986 0.45149,-3.78955 l 0.0271,-2.38125 1.14653,-5e-5 1.14653,-5e-5 -0.11715,2.91046 c -0.1335,3.31697 0.28685,4.85075 1.32939,4.85075 0.80056,0 2.13915,-1.28999 2.13915,-2.06148 0,-0.42762 -0.1135,-0.41461 -0.65454,0.075 -0.36805,0.33309 -0.90848,0.49491 -1.23472,0.36972 -0.47463,-0.18213 -0.58019,-0.76134 -0.58019,-3.18351 v -2.96087 h 1.05833 c 0.84254,0 1.05834,-0.15223 1.05834,-0.74658 0,-0.72053 -0.1246,-0.74158 -3.57043,-0.60318 -3.21785,0.12924 -3.6359,0.22425 -4.23334,0.96206 -0.84971,1.04935 -0.86226,1.73581 -0.0177,0.97155 1.31149,-1.18689 1.70589,-0.77204 1.54114,1.62101 -0.0835,1.21268 -0.37144,2.74019 -0.63988,3.39448 -0.65549,1.59767 -0.61917,2.23876 0.11878,2.09664 0.35591,-0.0685 0.78232,-0.69921 1.03122,-1.52517 z M -792.45969,376.2876 c 2.12131,-1.0734 3.06203,-4.10272 1.9449,-6.26301 -1.06628,-2.06195 -4.47594,-2.80598 -6.29645,-1.37396 -1.10407,0.86845 -1.17975,0.43676 -0.24475,-1.39598 0.89991,-1.76397 2.83881,-3.43324 4.60104,-3.96122 1.79375,-0.53742 1.87983,-1.18376 0.11353,-0.85241 -4.38746,0.8231 -7.51601,4.42624 -7.51601,8.65617 0,2.16541 1.02342,4.35044 2.38319,5.08818 1.1871,0.64406 3.837,0.69808 5.01455,0.10223 z m -3.71402,-0.52423 c -1.75524,-1.2189 -2.15735,-4.81623 -0.70114,-6.27244 1.74653,-1.74653 4.20974,-0.60701 4.62137,2.13794 0.27367,1.82499 0.0312,3.06891 -0.75051,3.85065 -0.5701,0.57009 -2.50767,0.74361 -3.16972,0.28385 z m 121.68631,-1.62982 c 2.447,-1.02242 3.41486,-4.42602 1.93807,-6.81552 -0.82936,-1.34193 -1.86177,-1.86801 -3.66587,-1.86801 -1.31336,0 -2.99224,0.63726 -2.99224,1.13578 0,0.17434 -0.15352,0.2221 -0.34114,0.10614 -0.19213,-0.11874 0.13572,-0.98583 0.75058,-1.98509 1.09124,-1.7735 2.73186,-3.07699 4.68379,-3.72134 0.56995,-0.18815 1.1072,-0.55483 1.19387,-0.81485 0.12311,-0.36934 -0.14218,-0.41558 -1.21267,-0.21136 -0.75365,0.14378 -1.67576,0.28707 -2.04913,0.31843 -1.10654,0.0929 -3.76796,2.74505 -4.65942,4.64313 -1.8651,3.97114 -0.35007,8.53397 3.10496,9.35123 1.7251,0.40805 1.96555,0.3978 3.2492,-0.13854 z m -3.91642,-1.45935 c -1.18644,-1.18644 -1.23504,-1.3323 -1.07737,-3.2336 0.1259,-1.51815 0.35491,-2.1448 0.96407,-2.63807 1.15448,-0.93484 2.38332,-0.80258 3.57014,0.38425 0.91076,0.91075 1.0312,1.27859 1.0312,3.14939 0,1.86814 -0.10973,2.20451 -0.92952,2.84936 -1.31233,1.03228 -2.1328,0.91439 -3.55852,-0.51133 z m -105.07783,-12.79288 c 2.83168,-0.18534 3.89581,-0.38384 4.01689,-0.74932 0.14061,-0.42443 -1.71361,-0.46354 -12.67162,-0.26732 -7.05998,0.12643 -13.82852,0.2311 -15.04119,0.2326 -1.67305,0.002 -2.20486,0.12414 -2.20486,0.50604 0,0.27682 0.27781,0.55969 0.61736,0.6286 0.99898,0.20276 21.0842,-0.0758 25.28342,-0.3506 z m 110.35962,-3.5759 c 2.86553,-0.023 3.43959,-0.11924 3.43959,-0.57659 0,-0.48272 -0.89058,-0.53594 -7.37971,-0.44097 -4.05884,0.0594 -7.48786,0.2165 -7.62005,0.34911 -0.71498,0.71728 0.48178,0.95604 4.16394,0.83073 2.17616,-0.0741 5.50446,-0.14708 7.39623,-0.16228 z m -128.69959,-1.40005 c 0.10677,-0.17275 -0.36011,-0.41807 -1.03751,-0.54515 l -1.23163,-0.23106 v -6.02238 -6.02238 l -0.79375,0.22657 c -0.43657,0.12461 -1.55245,0.32454 -2.47975,0.44428 -1.74399,0.2252 -2.61154,0.78905 -1.33344,0.86665 0.39951,0.0242 0.88513,0.0838 1.07916,0.13229 0.19403,0.0485 0.51153,0.10804 0.70555,0.13229 0.21684,0.0271 0.35278,2.00443 0.35278,5.13134 v 5.08725 l -1.05429,0.23156 c -2.26217,0.49686 -1.35673,0.88284 2.07099,0.88284 1.94027,0 3.61513,-0.14135 3.72189,-0.3141 z m 9.7253,-0.50715 c -0.6791,-0.20356 -1.32363,-0.49919 -1.4323,-0.65697 -0.10867,-0.15778 -0.24019,-2.78614 -0.29226,-5.8408 -0.0521,-3.05466 -0.15139,-5.61064 -0.2207,-5.67995 -0.0693,-0.0693 -1.24176,0.0734 -2.60545,0.3171 -2.52817,0.45181 -3.05736,1.0402 -0.93555,1.0402 h 1.17487 l 0.14064,3.96875 c 0.19789,5.58462 0.0474,6.2788 -1.47151,6.79024 -1.73536,0.58429 -0.91877,0.72708 3.25335,0.56891 3.19763,-0.12123 3.47847,-0.18089 2.38891,-0.50748 z m 5.67625,-0.49714 c 0.20192,-0.53108 0.45969,-2.27733 0.57284,-3.88055 l 0.20571,-2.91495 h 1.19169 1.1917 l -0.0976,3.54025 c -0.0782,2.83651 0.008,3.6083 0.4316,3.88258 0.81434,0.5268 1.80179,0.24909 2.41534,-0.67928 0.53657,-0.8119 0.52818,-0.83237 -0.24108,-0.58822 -1.32127,0.41936 -1.82205,-0.34118 -1.81667,-2.75894 0.007,-3.15531 0.24858,-3.81001 1.35773,-3.68018 0.6467,0.0757 0.95301,-0.0748 1.03803,-0.50996 0.1087,-0.55643 -0.24503,-0.61736 -3.58382,-0.61736 -3.58177,0 -3.72864,0.0308 -4.43559,0.92952 -0.90382,1.14901 -0.961,1.85728 -0.086,1.06543 0.35483,-0.32112 0.93325,-0.58384 1.28538,-0.58384 0.58025,0 0.61842,0.23484 0.40729,2.50642 -0.12812,1.37854 -0.46841,2.84261 -0.75621,3.2535 -0.2878,0.41089 -0.52327,1.02924 -0.52327,1.37413 0,0.97863 1.0344,0.73594 1.44292,-0.33855 z m 44.65249,-1.02844 3.93848,-0.22696 0.5398,-2.14292 c 0.2969,-1.17862 0.47028,-2.21247 0.38529,-2.29745 -0.085,-0.085 -0.47984,0.22059 -0.87746,0.67905 -0.56455,0.65093 -1.24136,0.89124 -3.08904,1.09678 -2.7485,0.30575 -8.53971,0.38458 -8.53971,0.11625 0,-0.10076 1.13041,-1.48982 2.51203,-3.08681 5.55391,-6.41968 7.54993,-10.17269 7.29377,-13.71406 -0.27431,-3.79233 -3.17539,-6.54911 -7.24802,-6.88749 -1.65052,-0.13714 -2.32373,-0.0158 -3.61201,0.6508 -1.71702,0.8885 -3.3008,3.11152 -3.66261,5.14088 -0.25831,1.44886 0.25587,1.48945 0.84518,0.0667 1.22074,-2.94711 5.57893,-4.00154 8.21997,-1.98876 1.97369,1.5042 2.44611,2.70645 2.29987,5.8529 -0.0982,2.11303 -0.34065,3.09634 -1.14008,4.62401 -1.22809,2.34682 -3.80042,5.70791 -7.00741,9.15614 -1.30968,1.40821 -2.38125,2.70229 -2.38125,2.87573 0,0.36759 5.86959,0.41098 11.5232,0.0852 z m 14.33088,-1.58854 c 0.72106,-1.47483 1.64551,-7.79651 1.6557,-11.32227 l 0.007,-2.38125 h 2.28631 2.2863 l -0.25079,1.67569 c -0.32694,2.18454 -0.33668,9.88798 -0.0139,11.03133 0.3629,1.28563 1.58535,2.46242 2.55797,2.46242 1.16161,0 2.88316,-1.5395 3.36954,-3.01323 0.49461,-1.49869 0.23238,-2.48658 -0.30308,-1.14176 -0.88701,2.22775 -3.68828,1.42186 -4.03468,-1.16072 -0.18899,-1.40904 0.26145,-9.42763 0.54555,-9.71173 0.1529,-0.1529 2.16008,-0.43539 3.34641,-0.47097 0.64147,-0.0192 0.79375,-0.22686 0.79375,-1.08215 v -1.05833 h -6.53772 c -7.91363,0 -8.52521,0.17542 -9.87106,2.83131 -0.50862,1.00373 -0.84208,1.90765 -0.74101,2.00872 0.10107,0.10107 0.7258,-0.39097 1.38829,-1.09341 0.88602,-0.93946 1.49669,-1.27717 2.3094,-1.27717 1.28512,0 1.24405,-0.28138 0.74655,5.11528 -0.30948,3.35707 -0.52476,4.20272 -1.59588,6.26878 -1.01397,1.95585 -1.1684,2.51855 -0.85296,3.10796 0.63098,1.179 2.14755,0.76785 2.90847,-0.7885 z m 49.23931,0.3194 c 0.19757,-0.6306 0.46666,-2.37685 0.59797,-3.88056 0.23777,-2.72264 0.24299,-2.73403 1.25565,-2.73403 h 1.01688 v 3.45722 c 0,3.47866 0.26186,4.30389 1.3657,4.30389 0.53732,0 1.8093,-0.98753 1.8093,-1.40469 0,-0.13035 -0.46897,-0.16817 -1.04216,-0.084 -0.88834,0.13038 -1.07652,0.0161 -1.27496,-0.77463 -0.12805,-0.51017 -0.12269,-1.95586 0.0119,-3.21266 0.23927,-2.2341 0.26772,-2.28509 1.27499,-2.28509 0.68059,0 1.03025,-0.17959 1.03025,-0.52917 0,-0.43525 -0.62894,-0.52916 -3.54381,-0.52916 -3.33207,0 -3.59779,0.054 -4.44714,0.90332 -1.00431,1.00431 -0.85494,1.66589 0.16726,0.74081 1.14838,-1.03927 1.4742,-0.71862 1.46594,1.44267 -0.005,1.25265 -0.27463,2.61665 -0.70555,3.5663 -0.86678,1.91021 -0.8691,2.16634 -0.0196,2.16634 0.45628,0 0.79574,-0.37517 1.03741,-1.14653 z m -40.23453,248.20276 c 0.25466,-0.10189 0.55893,-0.0894 0.67616,0.0278 0.11722,0.11721 -0.0911,0.20058 -0.46302,0.18526 -0.41097,-0.0169 -0.49456,-0.10051 -0.21314,-0.21312 z m -162.559,-185.17314 c 0.003,-0.37188 0.16655,-0.91428 0.3635,-1.20532 0.26151,-0.38645 0.29424,-0.24374 0.12136,0.52917 -0.29015,1.29714 -0.49207,1.57871 -0.48486,0.67615 z"
       id="path927-6"
       inkscape:connector-curvature="0"
       sodipodi:nodetypes="cccscccsccccccccscsscscscscccccccsscscsccscccscccscccsccccsccssssssccccccsccccccccscccssssssssssccscssccccccccccccccscccsccscccccccscccccccccccccscccccccccccccccccscccccccccscccccccccccccssccsccssscccccscsscsssccssccccsccccccccscssscccccccsscccccccccssccssscscccccccssccsssccccscscccscccccccccccscccccccccscccsccccccsscccccssscscsccscssccscscsscsccccscccccccccsccssscscccsccscccccccssccccscscsccssssccccsccscccccccccscccccccsccccccscccccssscccssssccccccsccccccccscccccscccccscscccccsccsccscsccccccccscccsccccsscsccccccccccccccscccsscssscccscccccsccccsscsccccccccccccccsscsscsccccscccscccccscccsccsccscsccccccccsccccssccccccscccccccsssccccscccsccscccscsccccsscccscccccccccccssccscsscsccccccscccccscscscccccssccccccsccscccscscsccscccsscccccccccccccsccsccscscsccccccccccsccccccsccscsscccccccsscsccccccscscccccccccscscscscscscssccccccscssscccssscsccsccccccccccc" />
    <path
       style="fill:#ffffff;fill-opacity:1;stroke-width:0.35277778"
       d="m -726.11737,447.90016 c 0.31892,0 1.00123,-0.29571 1.51625,-0.65713 0.51503,-0.36142 2.20641,-1.4202 3.75863,-2.35283 1.55223,-0.93263 3.85411,-2.36154 5.11528,-3.17535 1.95289,-1.26015 4.6124,-2.94545 11.64167,-7.3772 4.9418,-3.11565 5.29167,-3.3924 5.29167,-4.18581 0,-0.94507 -0.60868,-1.65447 -1.41958,-1.65447 -0.31509,0 -3.49803,1.84232 -7.0732,4.09403 -3.57516,2.25171 -9.43716,5.92527 -13.02668,8.16346 -3.58951,2.23819 -6.81113,4.43534 -7.15913,4.88255 -12.2675,7.21236 -23.0723,15.10851 -33.4103,21.82257 -10.07001,6.53549 -13.26979,8.62188 -19.50684,12.71927 -3.54418,2.32833 -9.50063,6.21771 -13.23653,8.64306 -3.73592,2.42536 -9.9223,6.47728 -13.74753,9.00429 -3.82521,2.52702 -8.6615,5.68642 -10.7473,7.02091 -2.0858,1.33447 -3.79236,2.64035 -3.79236,2.90195 0,0.2616 0.0808,0.47563 0.17966,0.47563 0.0988,0 1.48787,-0.84885 3.0868,-1.88633 4.64866,-3.01634 16.0497,-10.30647 24.07382,-15.39344 7.4684,-4.7347 10.58766,-6.72308 16.79648,-10.70696 1.86502,-1.19668 4.1565,-2.65204 5.0922,-3.23411 0.9357,-0.58208 3.33376,-2.09021 5.32902,-3.35139 1.99525,-1.26118 5.15324,-3.24556 7.01775,-4.40971 1.8645,-1.16418 4.52866,-2.84861 5.92033,-3.74322 z"
       id="path927-3-5"
       inkscape:connector-curvature="0"
       sodipodi:nodetypes="ccccsssccccssccsscccscccc" />
    <path
       style="fill:#fffff5;fill-opacity:1;stroke-width:0.35277778"
       d="m -642.40496,505.82976 -0.52092,0.0579 -2.3542,-1.53891 c -1.29481,-0.8464 -7.35483,-4.66693 -13.46671,-8.49005 -6.11187,-3.82314 -12.065,-7.55734 -13.22917,-8.29824 -1.16416,-0.74088 -3.70416,-2.3391 -5.64444,-3.55157 -8.05424,-5.03308 -13.21469,-8.28709 -15.875,-10.01023 -1.55222,-1.00542 -4.17161,-2.65684 -5.82084,-3.66985 -1.64924,-1.013 -6.41174,-3.99601 -10.58334,-6.62892 -4.17158,-2.6329 -8.45784,-5.32003 -9.525,-5.9714 -5.49808,-3.35592 -10.01934,-6.36204 -10.14272,-6.74375 l -16.58019,-4.5437 c -0.63058,-0.10172 -1.13955,-0.0563 -1.13103,0.10084 0.009,0.15716 1.49823,2.032 3.31047,4.16631 1.81224,2.1343 3.21295,4.01854 3.11268,4.18719 7.98395,6.18946 12.3052,7.38827 19.49052,11.23006 3.10445,1.65976 8.3432,4.4423 11.64167,6.18343 3.29847,1.74112 7.18784,3.80547 8.64306,4.58744 2.91949,1.56882 23.02721,12.25981 28.04583,14.91157 28.65036,16.07301 27.79717,17.34237 30.62933,14.02191 z"
       id="path927-3-7-5"
       inkscape:connector-curvature="0"
       sodipodi:nodetypes="ccscccscccccccccccccc" />
    <path
       style="fill:#fffff5;fill-opacity:1;stroke-width:0.35277778"
       d="m -730.11831,445.10824 c 0.48041,-2.20084 7.97901,-35.55242 10.25221,-45.5987 4.0245,-17.78606 4.2371,-18.8357 3.88613,-19.18667 -0.22534,-0.22534 -0.47673,-0.23349 -0.68097,-0.0221 -0.28267,0.29262 -1.74243,4.30808 -3.90511,10.74208 -0.35869,1.06715 -1.947,5.6709 -3.52956,10.23056 -1.58256,4.55965 -3.64417,10.51277 -4.58137,13.22916 -0.93719,2.71639 -3.07916,8.90764 -4.75994,13.75833 -1.68078,4.8507 -3.54193,10.2482 -4.13589,11.99445 -0.59397,1.74625 -1.29522,3.34944 -1.55833,3.56266 -0.43076,0.32822 0.36356,0.20477 0,0 0,0 -0.91217,14.95103 -1.19506,13.19405 0.1485,0.24028 0.38003,1.55333 0.51448,2.91788 l 0.24447,2.48102 1.2035,-1.37644 c 0.66191,-0.75704 1.29563,-1.65425 1.40825,-1.99379 0.11262,-0.33955 -0.22946,0.023 0,0 z"
       id="path927-3"
       inkscape:connector-curvature="0"
       sodipodi:nodetypes="cssccscscccccccccc" />
    <path
       style="fill:#000000;fill-opacity:1;stroke-width:0.35277778"
       d="m -739.26786,454.89538 c -1.27721,-1.76775 -0.57073,-4.27403 1.4395,-5.1067 1.464,-0.60641 3.41873,0.22779 3.67499,1.56833 0.29887,1.56345 -0.36242,3.33368 -1.3915,3.72494 -2.01581,0.7664 -3.07273,0.71344 -3.72299,-0.18657 z"
       id="path927-3-7"
       inkscape:connector-curvature="0"
       sodipodi:nodetypes="ccccc" />
  </g>
</svg>
